solid OpenSCAD_Model
  facet normal 0 0.7071067803084807 0.7071067820646144
    outer loop
      vertex 41.85999999701977 24.1 2.4000000000000057
      vertex 0 24.1 2.4000000000000057
      vertex 0 23.499999998509878 3
    endloop
  endfacet
  facet normal 0 0 1
    outer loop
      vertex 41.83052388340235 23.499999998509878 3
      vertex 0 23.499999998509878 3
      vertex 0 0 3
    endloop
  endfacet
  facet normal 0 1 0
    outer loop
      vertex 41.85999999701977 24.1 1
      vertex 0 24.1 1
      vertex 0 24.1 2.4000000000000057
    endloop
  endfacet
  facet normal 0 0.707106781186545 -0.70710678118655
    outer loop
      vertex 41.810873140990736 23.099999999999994 0
      vertex 0 23.099999999999994 0
      vertex 0 24.1 1
    endloop
  endfacet
  facet normal 0 0 -1
    outer loop
      vertex 42.77940926462412 22.480831815302366 0
      vertex 0 0 0
      vertex 0 23.099999999999994 0
    endloop
  endfacet
  facet normal 0 0.7071067803084806 0.7071067820646144
    outer loop
      vertex 41.83052388340235 23.499999998509878 3
      vertex 41.85999999701977 24.1 2.4000000000000057
      vertex 0 23.499999998509878 3
    endloop
  endfacet
  facet normal 0 1 0
    outer loop
      vertex 41.85999999701977 24.1 2.4000000000000057
      vertex 41.85999999701977 24.1 1
      vertex 0 24.1 2.4000000000000057
    endloop
  endfacet
  facet normal 0.06930857094645884 0.7037018686767083 0.7071067826108505
    outer loop
      vertex 41.83052388340235 23.499999998509878 3
      vertex 42.13256007939577 23.470252035558218 3
      vertex 41.85999999701977 24.1 2.4000000000000057
    endloop
  endfacet
  facet normal 0.20526226408436027 0.6766590014391534 0.7071067802774418
    outer loop
      vertex 42.13256007939577 23.470252035558218 3
      vertex 42.39464583009482 23.39074919223785 3
      vertex 42.62536686420441 23.947759068012232 2.4000000000000057
    endloop
  endfacet
  facet normal 0.33332782418243834 0.6236125111666683 0.707106779448623
    outer loop
      vertex 42.39464583009482 23.39074919223785 3
      vertex 42.63618542015553 23.261643594503397 3
      vertex 42.62536686420441 23.947759068012232 2.4000000000000057
    endloop
  endfacet
  facet normal 0.4485838065992626 0.5466009248670812 0.7071067793419652
    outer loop
      vertex 42.63618542015553 23.261643594503397 3
      vertex 42.84789665549994 23.087896665930742 3
      vertex 43.27421355754137 23.514213560521597 2.4000000000000057
    endloop
  endfacet
  facet normal 0.54660092439665 0.44858380621318966 0.7071067799505356
    outer loop
      vertex 42.84789665549994 23.087896665930742 3
      vertex 43.02164358407259 22.876185430586332 3
      vertex 43.27421355754137 23.514213560521597 2.4000000000000057
    endloop
  endfacet
  facet normal 0.6236125095771599 0.33332782333282845 0.7071067812509475
    outer loop
      vertex 43.02164358407259 22.876185430586332 3
      vertex 43.15074918180704 22.63464584052562 3
      vertex 43.70775906503201 22.865366867184633 2.4000000000000057
    endloop
  endfacet
  facet normal 0.6766589986383649 0.2052622632347504 0.7071067832042579
    outer loop
      vertex 43.15074918180704 22.63464584052562 3
      vertex 43.23025202512741 22.372560089826578 3
      vertex 43.70775906503201 22.865366867184633 2.4000000000000057
    endloop
  endfacet
  facet normal 0.7037018666168892 0.06930858639269642 0.7071067831467551
    outer loop
      vertex 43.23025202512741 22.372560089826578 3
      vertex 43.259999995529654 22.070523886382574 3
      vertex 43.82157055795193 22.490180647373194 2.4000000000000057
    endloop
  endfacet
  facet normal 0.06930858399477365 0.7037018709500544 0.7071067790694928
    outer loop
      vertex 42.13256007939577 23.470252035558218 3
      vertex 42.25018064439297 24.06157056093216 2.4000000000000057
      vertex 41.85999999701977 24.1 2.4000000000000057
    endloop
  endfacet
  facet normal 0.20526226010495877 0.6766590039629188 0.7071067790175081
    outer loop
      vertex 42.13256007939577 23.470252035558218 3
      vertex 42.62536686420441 23.947759068012232 2.4000000000000057
      vertex 42.25018064439297 24.06157056093216 2.4000000000000057
    endloop
  endfacet
  facet normal 0.3333278311786077 0.623612509600681 0.707106777531729
    outer loop
      vertex 42.63618542015553 23.261643594503397 3
      vertex 42.971140464246275 23.76293922811746 2.4000000000000057
      vertex 42.62536686420441 23.947759068012232 2.4000000000000057
    endloop
  endfacet
  facet normal 0.44858380367267225 0.5466009290285991 0.7071067779816776
    outer loop
      vertex 42.63618542015553 23.261643594503397 3
      vertex 43.27421355754137 23.514213560521597 2.4000000000000057
      vertex 42.971140464246275 23.76293922811746 2.4000000000000057
    endloop
  endfacet
  facet normal 0.5466009285581679 0.44858380328659936 0.7071067785902482
    outer loop
      vertex 43.02164358407259 22.876185430586332 3
      vertex 43.522939225137236 23.2111404672265 2.4000000000000057
      vertex 43.27421355754137 23.514213560521597 2.4000000000000057
    endloop
  endfacet
  facet normal 0.6236125080111727 0.33332783032899777 0.7071067793340534
    outer loop
      vertex 43.02164358407259 22.876185430586332 3
      vertex 43.70775906503201 22.865366867184633 2.4000000000000057
      vertex 43.522939225137236 23.2111404672265 2.4000000000000057
    endloop
  endfacet
  facet normal 0.6766590011621372 0.2052622592553381 0.7071067819443208
    outer loop
      vertex 43.23025202512741 22.372560089826578 3
      vertex 43.82157055795193 22.490180647373194 2.4000000000000057
      vertex 43.70775906503201 22.865366867184633 2.4000000000000057
    endloop
  endfacet
  facet normal 0.7037018677377384 0.06930858367838812 0.7071067822973518
    outer loop
      vertex 43.259999995529654 22.070523886382574 3
      vertex 43.85999999701977 22.099999999999994 2.4000000000000057
      vertex 43.82157055795193 22.490180647373194 2.4000000000000057
    endloop
  endfacet
  facet normal 0.09801713918082348 0.9951847267853375 0
    outer loop
      vertex 41.85999999701977 24.1 2.4000000000000057
      vertex 42.25018064439297 24.06157056093216 2.4000000000000057
      vertex 41.85999999701977 24.1 1
    endloop
  endfacet
  facet normal 0.29028467119334267 0.9569403375708294 0
    outer loop
      vertex 42.25018064439297 24.06157056093216 2.4000000000000057
      vertex 42.62536686420441 23.947759068012232 2.4000000000000057
      vertex 42.62536686420441 23.947759068012232 1
    endloop
  endfacet
  facet normal 0.4713967371326908 0.8819212641844242 0
    outer loop
      vertex 42.62536686420441 23.947759068012232 2.4000000000000057
      vertex 42.971140464246275 23.76293922811746 2.4000000000000057
      vertex 42.971140464246275 23.76293922811746 1
    endloop
  endfacet
  facet normal 0.6343932961394977 0.7730104435344091 0
    outer loop
      vertex 42.971140464246275 23.76293922811746 2.4000000000000057
      vertex 43.27421355754137 23.514213560521597 2.4000000000000057
      vertex 43.27421355754137 23.514213560521597 1
    endloop
  endfacet
  facet normal 0.7730104435344091 0.6343932961394977 0
    outer loop
      vertex 43.27421355754137 23.514213560521597 2.4000000000000057
      vertex 43.522939225137236 23.2111404672265 2.4000000000000057
      vertex 43.27421355754137 23.514213560521597 1
    endloop
  endfacet
  facet normal 0.8819212641844242 0.4713967371326908 0
    outer loop
      vertex 43.522939225137236 23.2111404672265 2.4000000000000057
      vertex 43.70775906503201 22.865366867184633 2.4000000000000057
      vertex 43.70775906503201 22.865366867184633 1
    endloop
  endfacet
  facet normal 0.9569403375708344 0.29028467119332607 0
    outer loop
      vertex 43.70775906503201 22.865366867184633 2.4000000000000057
      vertex 43.82157055795193 22.490180647373194 2.4000000000000057
      vertex 43.70775906503201 22.865366867184633 1
    endloop
  endfacet
  facet normal 0.9951847267853375 0.09801713918082348 0
    outer loop
      vertex 43.82157055795193 22.490180647373194 2.4000000000000057
      vertex 43.85999999701977 22.099999999999994 2.4000000000000057
      vertex 43.85999999701977 22.099999999999994 1
    endloop
  endfacet
  facet normal 0 0 1
    outer loop
      vertex 41.83052388340235 23.499999998509878 3
      vertex 43.259999995529654 0 3
      vertex 42.13256007939577 23.470252035558218 3
    endloop
  endfacet
  facet normal 0 0 1
    outer loop
      vertex 42.13256007939577 23.470252035558218 3
      vertex 43.259999995529654 0 3
      vertex 42.39464583009482 23.39074919223785 3
    endloop
  endfacet
  facet normal 0 0 1
    outer loop
      vertex 42.39464583009482 23.39074919223785 3
      vertex 43.259999995529654 0 3
      vertex 42.63618542015553 23.261643594503397 3
    endloop
  endfacet
  facet normal 0 0 1
    outer loop
      vertex 42.63618542015553 23.261643594503397 3
      vertex 43.259999995529654 0 3
      vertex 42.84789665549994 23.087896665930742 3
    endloop
  endfacet
  facet normal 0 0 1
    outer loop
      vertex 42.84789665549994 23.087896665930742 3
      vertex 43.259999995529654 0 3
      vertex 43.02164358407259 22.876185430586332 3
    endloop
  endfacet
  facet normal 0 0 1
    outer loop
      vertex 43.02164358407259 22.876185430586332 3
      vertex 43.259999995529654 0 3
      vertex 43.15074918180704 22.63464584052562 3
    endloop
  endfacet
  facet normal 0 0 1
    outer loop
      vertex 43.15074918180704 22.63464584052562 3
      vertex 43.259999995529654 0 3
      vertex 43.23025202512741 22.372560089826578 3
    endloop
  endfacet
  facet normal 0 0 1
    outer loop
      vertex 43.23025202512741 22.372560089826578 3
      vertex 43.259999995529654 0 3
      vertex 43.259999995529654 22.070523886382574 3
    endloop
  endfacet
  facet normal 0.7071067803084848 0 0.7071067820646102
    outer loop
      vertex 43.259999995529654 22.070523886382574 3
      vertex 43.85999999701977 0 2.4000000000000057
      vertex 43.85999999701977 22.099999999999994 2.4000000000000057
    endloop
  endfacet
  facet normal 0 0.707106781186545 -0.70710678118655
    outer loop
      vertex 41.85999999701977 24.1 1
      vertex 41.810873140990736 23.099999999999994 0
      vertex 0 24.1 1
    endloop
  endfacet
  facet normal 0 0 -1
    outer loop
      vertex 41.810873140990736 23.099999999999994 0
      vertex 42.77940926462412 22.480831815302366 0
      vertex 0 23.099999999999994 0
    endloop
  endfacet
  facet normal 0 0 -1
    outer loop
      vertex 42.77940926462412 22.480831815302366 0
      vertex 42.85999999701977 22.05087315142154 0
      vertex 0 0 0
    endloop
  endfacet
  facet normal 0.09801713918082348 0.9951847267853375 0
    outer loop
      vertex 42.25018064439297 24.06157056093216 2.4000000000000057
      vertex 42.25018064439297 24.06157056093216 1
      vertex 41.85999999701977 24.1 1
    endloop
  endfacet
  facet normal 0.29028467119334267 0.9569403375708294 0
    outer loop
      vertex 42.25018064439297 24.06157056093216 2.4000000000000057
      vertex 42.62536686420441 23.947759068012232 1
      vertex 42.25018064439297 24.06157056093216 1
    endloop
  endfacet
  facet normal 0.4713967371326908 0.8819212641844242 0
    outer loop
      vertex 42.62536686420441 23.947759068012232 2.4000000000000057
      vertex 42.971140464246275 23.76293922811746 1
      vertex 42.62536686420441 23.947759068012232 1
    endloop
  endfacet
  facet normal 0.6343932961394977 0.7730104435344091 0
    outer loop
      vertex 42.971140464246275 23.76293922811746 2.4000000000000057
      vertex 43.27421355754137 23.514213560521597 1
      vertex 42.971140464246275 23.76293922811746 1
    endloop
  endfacet
  facet normal 0.7730104435344091 0.6343932961394977 0
    outer loop
      vertex 43.522939225137236 23.2111404672265 2.4000000000000057
      vertex 43.522939225137236 23.2111404672265 1
      vertex 43.27421355754137 23.514213560521597 1
    endloop
  endfacet
  facet normal 0.8819212641844242 0.4713967371326908 0
    outer loop
      vertex 43.522939225137236 23.2111404672265 2.4000000000000057
      vertex 43.70775906503201 22.865366867184633 1
      vertex 43.522939225137236 23.2111404672265 1
    endloop
  endfacet
  facet normal 0.9569403375708344 0.29028467119332607 0
    outer loop
      vertex 43.82157055795193 22.490180647373194 2.4000000000000057
      vertex 43.82157055795193 22.490180647373194 1
      vertex 43.70775906503201 22.865366867184633 1
    endloop
  endfacet
  facet normal 0.9951847267853375 0.09801713918082348 0
    outer loop
      vertex 43.82157055795193 22.490180647373194 2.4000000000000057
      vertex 43.85999999701977 22.099999999999994 1
      vertex 43.82157055795193 22.490180647373194 1
    endloop
  endfacet
  facet normal 0.06930858396946658 0.7037018706931081 -0.7071067793276824
    outer loop
      vertex 41.85999999701977 24.1 1
      vertex 42.25018064439297 24.06157056093216 1
      vertex 42.05414636194706 23.076039685308928 0
    endloop
  endfacet
  facet normal 0.20526225988299068 0.6766590032311881 -0.7071067797821645
    outer loop
      vertex 42.25018064439297 24.06157056093216 1
      vertex 42.62536686420441 23.947759068012232 1
      vertex 42.05414636194706 23.076039685308928 0
    endloop
  endfacet
  facet normal 0.3333278302402442 0.6236125078451267 -0.7071067795223314
    outer loop
      vertex 42.62536686420441 23.947759068012232 1
      vertex 42.971140464246275 23.76293922811746 1
      vertex 42.24083180487156 23.019409275054926 0
    endloop
  endfacet
  facet normal 0.4485838013207552 0.54660092616278 -0.7071067816890264
    outer loop
      vertex 42.971140464246275 23.76293922811746 1
      vertex 43.27421355754137 23.514213560521597 1
      vertex 42.41288204997778 22.927446497976774 0
    endloop
  endfacet
  facet normal 0.5466009258805212 0.4485838010891114 -0.7071067820541685
    outer loop
      vertex 43.27421355754137 23.514213560521597 1
      vertex 43.522939225137236 23.2111404672265 1
      vertex 42.68744648754597 22.652882060408587 0
    endloop
  endfacet
  facet normal 0.6236125068914218 0.33332782973047825 -0.707106780603726
    outer loop
      vertex 43.522939225137236 23.2111404672265 1
      vertex 43.70775906503201 22.865366867184633 1
      vertex 42.77940926462412 22.480831815302366 0
    endloop
  endfacet
  facet normal 0.6766590015507203 0.20526225937321357 -0.7071067815382525
    outer loop
      vertex 43.70775906503201 22.865366867184633 1
      vertex 43.82157055795193 22.490180647373194 1
      vertex 42.83603967487812 22.294146372377867 0
    endloop
  endfacet
  facet normal 0.7037018688643165 0.06930858378934633 -0.7071067811653227
    outer loop
      vertex 43.82157055795193 22.490180647373194 1
      vertex 43.85999999701977 22.099999999999994 1
      vertex 42.85999999701977 22.05087315142154 0
    endloop
  endfacet
  facet normal 0.06930856665797429 0.7037018698689274 -0.7071067818447173
    outer loop
      vertex 41.85999999701977 24.1 1
      vertex 42.05414636194706 23.076039685308928 0
      vertex 41.810873140990736 23.099999999999994 0
    endloop
  endfacet
  facet normal 0.20526226481869866 0.6766590009059125 -0.7071067805745543
    outer loop
      vertex 42.62536686420441 23.947759068012232 1
      vertex 42.24083180487156 23.019409275054926 0
      vertex 42.05414636194706 23.076039685308928 0
    endloop
  endfacet
  facet normal 0.3333278433570787 0.6236124981477756 -0.7071067818913982
    outer loop
      vertex 42.971140464246275 23.76293922811746 1
      vertex 42.41288204997778 22.927446497976774 0
      vertex 42.24083180487156 23.019409275054926 0
    endloop
  endfacet
  facet normal 0.4485838013542067 0.546600926125984 -0.7071067816962485
    outer loop
      vertex 43.27421355754137 23.514213560521597 1
      vertex 42.56368538498879 22.803685395419592 0
      vertex 42.41288204997778 22.927446497976774 0
    endloop
  endfacet
  facet normal 0.5466009258437253 0.4485838011225631 -0.7071067820613908
    outer loop
      vertex 43.27421355754137 23.514213560521597 1
      vertex 42.68744648754597 22.652882060408587 0
      vertex 42.56368538498879 22.803685395419592 0
    endloop
  endfacet
  facet normal 0.6236124971940707 0.3333278428473128 -0.7071067829727928
    outer loop
      vertex 43.522939225137236 23.2111404672265 1
      vertex 42.77940926462412 22.480831815302366 0
      vertex 42.68744648754597 22.652882060408587 0
    endloop
  endfacet
  facet normal 0 0 -1
    outer loop
      vertex 41.810873140990736 23.099999999999994 0
      vertex 42.05414636194706 23.076039685308928 0
      vertex 42.77940926462412 22.480831815302366 0
    endloop
  endfacet
  facet normal 0 0 -1
    outer loop
      vertex 42.05414636194706 23.076039685308928 0
      vertex 42.24083180487156 23.019409275054926 0
      vertex 42.77940926462412 22.480831815302366 0
    endloop
  endfacet
  facet normal 0 0 -1
    outer loop
      vertex 42.24083180487156 23.019409275054926 0
      vertex 42.41288204997778 22.927446497976774 0
      vertex 42.77940926462412 22.480831815302366 0
    endloop
  endfacet
  facet normal 0 0 -1
    outer loop
      vertex 42.41288204997778 22.927446497976774 0
      vertex 42.56368538498879 22.803685395419592 0
      vertex 42.77940926462412 22.480831815302366 0
    endloop
  endfacet
  facet normal 0 0 -1
    outer loop
      vertex 42.56368538498879 22.803685395419592 0
      vertex 42.68744648754597 22.652882060408587 0
      vertex 42.77940926462412 22.480831815302366 0
    endloop
  endfacet
  facet normal 0.6766589992254395 0.20526226430893277 -0.7071067823306438
    outer loop
      vertex 43.70775906503201 22.865366867184633 1
      vertex 42.83603967487812 22.294146372377867 0
      vertex 42.77940926462412 22.480831815302366 0
    endloop
  endfacet
  facet normal 0.7037018677088748 0.06930858799707575 -0.7071067819027711
    outer loop
      vertex 43.82157055795193 22.490180647373194 1
      vertex 42.85999999701977 22.05087315142154 0
      vertex 42.83603967487812 22.294146372377867 0
    endloop
  endfacet
  facet normal 0 0 -1
    outer loop
      vertex 42.77940926462412 22.480831815302366 0
      vertex 42.83603967487812 22.294146372377867 0
      vertex 42.85999999701977 22.05087315142154 0
    endloop
  endfacet
  facet normal 1 0 0
    outer loop
      vertex 43.85999999701977 22.099999999999994 2.4000000000000057
      vertex 43.85999999701977 0 1
      vertex 43.85999999701977 22.099999999999994 1
    endloop
  endfacet
  facet normal 0.7071067811865476 0 -0.7071067811865476
    outer loop
      vertex 43.85999999701977 22.099999999999994 1
      vertex 43.85999999701977 0 1
      vertex 42.85999999701977 22.05087315142154 0
    endloop
  endfacet
  facet normal 0 0 1
    outer loop
      vertex 41.83052388340235 23.499999998509878 3
      vertex 0 0 3
      vertex 43.259999995529654 0 3
    endloop
  endfacet
  facet normal 0.7071067803084847 0 0.7071067820646102
    outer loop
      vertex 43.259999995529654 22.070523886382574 3
      vertex 43.259999995529654 0 3
      vertex 43.85999999701977 0 2.4000000000000057
    endloop
  endfacet
  facet normal 1 0 0
    outer loop
      vertex 43.85999999701977 22.099999999999994 2.4000000000000057
      vertex 43.85999999701977 0 2.4000000000000057
      vertex 43.85999999701977 0 1
    endloop
  endfacet
  facet normal 0 0 -1
    outer loop
      vertex 42.85999999701977 22.05087315142154 0
      vertex 42.85999999701977 0 0
      vertex 0 0 0
    endloop
  endfacet
  facet normal 0.7071067811865475 0 -0.7071067811865475
    outer loop
      vertex 42.85999999701977 22.05087315142154 0
      vertex 43.85999999701977 0 1
      vertex 42.85999999701977 0 0
    endloop
  endfacet
  facet normal -1 0 0
    outer loop
      vertex 0 23.099999999999994 0
      vertex 0 23.499999998509878 3
      vertex 0 24.1 2.4000000000000057
    endloop
  endfacet
  facet normal -1 0 0
    outer loop
      vertex 0 23.499999998509878 3
      vertex 0 23.099999999999994 0
      vertex 0 0 3
    endloop
  endfacet
  facet normal -1 0 0
    outer loop
      vertex 0 24.1 2.4000000000000057
      vertex 0 24.1 1
      vertex 0 23.099999999999994 0
    endloop
  endfacet
  facet normal 0 -1 0
    outer loop
      vertex 43.259999995529654 0 3
      vertex 0 0 3
      vertex 0 0 0
    endloop
  endfacet
  facet normal -1 0 0
    outer loop
      vertex 0 23.099999999999994 0
      vertex 0 0 0
      vertex 0 0 3
    endloop
  endfacet
  facet normal 0 -1 0
    outer loop
      vertex 43.85999999701977 0 2.4000000000000057
      vertex 43.259999995529654 0 3
      vertex 43.85999999701977 0 1
    endloop
  endfacet
  facet normal 0 -1 0
    outer loop
      vertex 43.259999995529654 0 3
      vertex 0 0 0
      vertex 42.85999999701977 0 0
    endloop
  endfacet
  facet normal 0 -1 0
    outer loop
      vertex 43.259999995529654 0 3
      vertex 42.85999999701977 0 0
      vertex 43.85999999701977 0 1
    endloop
  endfacet
endsolid OpenSCAD_Model
