solid OpenSCAD_Model
  facet normal 1 0 0
    outer loop
      vertex 1.200000000000017 5.400000001490113 4.171572878956795
      vertex 1.200000000000017 5.400000001490113 0
      vertex 1.200000000000017 29.799999999999997 0
    endloop
  endfacet
  facet normal 0 1 0
    outer loop
      vertex 1.200000000000017 5.400000001490113 4.171572878956795
      vertex 44.160000000000025 5.400000001490113 4.171572878956795
      vertex 1.200000000000017 5.400000001490113 0
    endloop
  endfacet
  facet normal 0 0.9951847267853376 -0.09801713918082348
    outer loop
      vertex 1.200000000000017 5.400000001490113 4.171572878956795
      vertex 1.200000000000017 5.438429440557954 4.561753526329994
      vertex 44.160000000000025 5.438429440557954 4.561753526329994
    endloop
  endfacet
  facet normal 0 0.9569403375708344 -0.29028467119332607
    outer loop
      vertex 1.200000000000017 5.438429440557954 4.561753526329994
      vertex 1.200000000000017 5.552240933477876 4.936939746141434
      vertex 44.160000000000025 5.552240933477876 4.936939746141434
    endloop
  endfacet
  facet normal 0 0.8819212641844241 -0.47139673713269076
    outer loop
      vertex 1.200000000000017 5.552240933477876 4.936939746141434
      vertex 1.200000000000017 5.737060773372647 5.2827133461833
      vertex 44.160000000000025 5.737060773372647 5.2827133461833
    endloop
  endfacet
  facet normal 0 0.7730104435344091 -0.6343932961394977
    outer loop
      vertex 1.200000000000017 5.737060773372647 5.2827133461833
      vertex 1.200000000000017 5.985786440968511 5.585786439478397
      vertex 44.160000000000025 5.985786440968511 5.585786439478397
    endloop
  endfacet
  facet normal 1 0 0
    outer loop
      vertex 1.200000000000017 5.400000001490113 4.171572878956795
      vertex 1.200000000000017 29.799999999999997 8
      vertex 1.200000000000017 5.438429440557954 4.561753526329994
    endloop
  endfacet
  facet normal 1 0 0
    outer loop
      vertex 1.200000000000017 5.438429440557954 4.561753526329994
      vertex 1.200000000000017 29.799999999999997 8
      vertex 1.200000000000017 5.552240933477876 4.936939746141434
    endloop
  endfacet
  facet normal 1 0 0
    outer loop
      vertex 1.200000000000017 5.552240933477876 4.936939746141434
      vertex 1.200000000000017 29.799999999999997 8
      vertex 1.200000000000017 5.737060773372647 5.2827133461833
    endloop
  endfacet
  facet normal 1 0 0
    outer loop
      vertex 1.200000000000017 5.737060773372647 5.2827133461833
      vertex 1.200000000000017 29.799999999999997 8
      vertex 1.200000000000017 5.985786440968511 5.585786439478397
    endloop
  endfacet
  facet normal 1 0 0
    outer loop
      vertex 1.200000000000017 5.985786440968511 5.585786439478397
      vertex 1.200000000000017 29.799999999999997 8
      vertex 1.200000000000017 8.199999998509881 7.799999997019768
    endloop
  endfacet
  facet normal 1 0 0
    outer loop
      vertex 1.200000000000017 8.199999998509881 7.799999997019768
      vertex 1.200000000000017 29.799999999999997 8
      vertex 1.200000000000017 8.330524119734761 7.930524118244648
    endloop
  endfacet
  facet normal 1 0 0
    outer loop
      vertex 1.200000000000017 8.330524119734761 7.930524118244648
      vertex 1.200000000000017 29.799999999999997 8
      vertex 1.200000000000017 8.387541499205412 8
    endloop
  endfacet
  facet normal 0 0.7071067811865476 -0.7071067811865476
    outer loop
      vertex 1.200000000000017 5.985786440968511 5.585786439478397
      vertex 1.200000000000017 8.199999998509881 7.799999997019768
      vertex 44.160000000000025 5.985786440968511 5.585786439478397
    endloop
  endfacet
  facet normal 1 0 0
    outer loop
      vertex 1.200000000000017 5.400000001490113 4.171572878956795
      vertex 1.200000000000017 29.799999999999997 0
      vertex 1.200000000000017 29.799999999999997 8
    endloop
  endfacet
  facet normal 0 1 0
    outer loop
      vertex 44.160000000000025 5.400000001490113 4.171572878956795
      vertex 44.160000000000025 5.400000001490113 0
      vertex 1.200000000000017 5.400000001490113 0
    endloop
  endfacet
  facet normal 0 0.9951847267853376 -0.09801713918082348
    outer loop
      vertex 1.200000000000017 5.400000001490113 4.171572878956795
      vertex 44.160000000000025 5.438429440557954 4.561753526329994
      vertex 44.160000000000025 5.400000001490113 4.171572878956795
    endloop
  endfacet
  facet normal 0 0.9569403375708344 -0.29028467119332607
    outer loop
      vertex 1.200000000000017 5.438429440557954 4.561753526329994
      vertex 44.160000000000025 5.552240933477876 4.936939746141434
      vertex 44.160000000000025 5.438429440557954 4.561753526329994
    endloop
  endfacet
  facet normal 0 0.8819212641844241 -0.47139673713269076
    outer loop
      vertex 1.200000000000017 5.552240933477876 4.936939746141434
      vertex 44.160000000000025 5.737060773372647 5.2827133461833
      vertex 44.160000000000025 5.552240933477876 4.936939746141434
    endloop
  endfacet
  facet normal 0 0.7730104435344091 -0.6343932961394977
    outer loop
      vertex 1.200000000000017 5.737060773372647 5.2827133461833
      vertex 44.160000000000025 5.985786440968511 5.585786439478397
      vertex 44.160000000000025 5.737060773372647 5.2827133461833
    endloop
  endfacet
  facet normal -1 0 0
    outer loop
      vertex 44.160000000000025 5.400000001490113 4.171572878956795
      vertex 44.160000000000025 5.438429440557954 4.561753526329994
      vertex 44.160000000000025 5.400000001490113 0
    endloop
  endfacet
  facet normal -1 0 0
    outer loop
      vertex 44.160000000000025 5.438429440557954 4.561753526329994
      vertex 44.160000000000025 5.552240933477876 4.936939746141434
      vertex 44.160000000000025 5.400000001490113 0
    endloop
  endfacet
  facet normal -1 0 0
    outer loop
      vertex 44.160000000000025 5.552240933477876 4.936939746141434
      vertex 44.160000000000025 5.737060773372647 5.2827133461833
      vertex 44.160000000000025 5.400000001490113 0
    endloop
  endfacet
  facet normal -1 0 0
    outer loop
      vertex 44.160000000000025 5.737060773372647 5.2827133461833
      vertex 44.160000000000025 29.799999999999997 0
      vertex 44.160000000000025 5.400000001490113 0
    endloop
  endfacet
  facet normal -1 0 0
    outer loop
      vertex 44.160000000000025 5.737060773372647 5.2827133461833
      vertex 44.160000000000025 5.985786440968511 5.585786439478397
      vertex 44.160000000000025 29.799999999999997 0
    endloop
  endfacet
  facet normal -1 0 0
    outer loop
      vertex 44.160000000000025 5.985786440968511 5.585786439478397
      vertex 44.160000000000025 8.199999998509881 7.799999997019768
      vertex 44.160000000000025 29.799999999999997 0
    endloop
  endfacet
  facet normal -1 0 0
    outer loop
      vertex 44.160000000000025 8.199999998509881 7.799999997019768
      vertex 44.160000000000025 8.330524119734761 7.930524118244648
      vertex 44.160000000000025 29.799999999999997 0
    endloop
  endfacet
  facet normal -1 0 0
    outer loop
      vertex 44.160000000000025 8.330524119734761 7.930524118244648
      vertex 44.160000000000025 8.390702168643472 8.003851287066936
      vertex 44.160000000000025 29.799999999999997 0
    endloop
  endfacet
  facet normal -1 0 0
    outer loop
      vertex 44.160000000000025 8.390702168643472 8.003851287066936
      vertex 44.160000000000025 8.400000001490113 8.098253697156906
      vertex 44.160000000000025 29.799999999999997 0
    endloop
  endfacet
  facet normal 0 0.7071067811865476 -0.7071067811865476
    outer loop
      vertex 1.200000000000017 8.199999998509881 7.799999997019768
      vertex 44.160000000000025 8.199999998509881 7.799999997019768
      vertex 44.160000000000025 5.985786440968511 5.585786439478397
    endloop
  endfacet
  facet normal -1 0 0
    outer loop
      vertex 44.160000000000025 8.400000001490113 10
      vertex 44.160000000000025 8.438429440557954 10.3901806473732
      vertex 44.160000000000025 8.677654955935608 11
    endloop
  endfacet
  facet normal -1 0 0
    outer loop
      vertex 44.160000000000025 8.438429440557954 10.3901806473732
      vertex 44.160000000000025 8.552240933477876 10.765366867184639
      vertex 44.160000000000025 8.677654955935608 11
    endloop
  endfacet
  facet normal -1 0 0
    outer loop
      vertex 44.160000000000025 8.400000001490113 8.098253697156906
      vertex 44.160000000000025 8.400000001490113 10
      vertex 44.160000000000025 29.799999999999997 0
    endloop
  endfacet
  facet normal -1 0 0
    outer loop
      vertex 44.160000000000025 8.400000001490113 10
      vertex 44.160000000000025 8.677654955935608 11
      vertex 44.160000000000025 29.799999999999997 0
    endloop
  endfacet
  facet normal -1 0 0
    outer loop
      vertex 44.160000000000025 8.677654955935608 11
      vertex 44.160000000000025 29.799999999999997 11
      vertex 44.160000000000025 29.799999999999997 0
    endloop
  endfacet
  facet normal 0 1 0
    outer loop
      vertex 1.200000000000017 5.400000001490113 7.799999997019768
      vertex 1.200000000000017 5.400000001490113 8
      vertex 1.5999999999999943 5.400000001490113 8
    endloop
  endfacet
  facet normal 1 0 0
    outer loop
      vertex 1.200000000000017 5.400000001490113 7.799999997019768
      vertex 1.200000000000017 8.330524119734761 7.930524118244648
      vertex 1.200000000000017 5.400000001490113 8
    endloop
  endfacet
  facet normal 1 0 0
    outer loop
      vertex 1.200000000000017 5.400000001490113 7.799999997019768
      vertex 1.200000000000017 8.199999998509881 7.799999997019768
      vertex 1.200000000000017 8.330524119734761 7.930524118244648
    endloop
  endfacet
  facet normal 1 0 0
    outer loop
      vertex 1.200000000000017 5.400000001490113 8
      vertex 1.200000000000017 8.330524119734761 7.930524118244648
      vertex 1.200000000000017 8.387541499205412 8
    endloop
  endfacet
  facet normal 0 1 0
    outer loop
      vertex 1.200000000000017 5.400000001490113 7.799999997019768
      vertex 1.5999999999999943 5.400000001490113 8
      vertex 44.160000000000025 5.400000001490113 7.799999997019768
    endloop
  endfacet
  facet normal 0 0 1
    outer loop
      vertex 1.200000000000017 5.400000001490113 7.799999997019768
      vertex 44.160000000000025 5.400000001490113 7.799999997019768
      vertex 1.200000000000017 8.199999998509881 7.799999997019768
    endloop
  endfacet
  facet normal 0 1 0
    outer loop
      vertex 1.5999999999999943 5.400000001490113 8
      vertex 1.5999999999999943 5.400000001490113 11
      vertex 44.160000000000025 5.400000001490113 7.799999997019768
    endloop
  endfacet
  facet normal 0 0 1
    outer loop
      vertex 1.200000000000017 8.199999998509881 7.799999997019768
      vertex 44.160000000000025 5.400000001490113 7.799999997019768
      vertex 44.160000000000025 8.199999998509881 7.799999997019768
    endloop
  endfacet
  facet normal 0 1 0
    outer loop
      vertex 1.5999999999999943 5.400000001490113 11
      vertex 44.160000000000025 5.400000001490113 11
      vertex 44.160000000000025 5.400000001490113 7.799999997019768
    endloop
  endfacet
  facet normal -1 0 0
    outer loop
      vertex 44.160000000000025 5.400000001490113 7.799999997019768
      vertex 44.160000000000025 8.330524119734761 7.930524118244648
      vertex 44.160000000000025 8.199999998509881 7.799999997019768
    endloop
  endfacet
  facet normal -1 0 0
    outer loop
      vertex 44.160000000000025 5.400000001490113 7.799999997019768
      vertex 44.160000000000025 8.390702168643472 8.003851287066936
      vertex 44.160000000000025 8.330524119734761 7.930524118244648
    endloop
  endfacet
  facet normal -1 0 0
    outer loop
      vertex 44.160000000000025 5.400000001490113 7.799999997019768
      vertex 44.160000000000025 8.400000001490113 8.098253697156906
      vertex 44.160000000000025 8.390702168643472 8.003851287066936
    endloop
  endfacet
  facet normal -1 0 0
    outer loop
      vertex 44.160000000000025 5.400000001490113 7.799999997019768
      vertex 44.160000000000025 8.400000001490113 10
      vertex 44.160000000000025 8.400000001490113 8.098253697156906
    endloop
  endfacet
  facet normal -1 0 0
    outer loop
      vertex 44.160000000000025 5.400000001490113 7.799999997019768
      vertex 44.160000000000025 8.438429440557954 10.3901806473732
      vertex 44.160000000000025 8.400000001490113 10
    endloop
  endfacet
  facet normal -1 0 0
    outer loop
      vertex 44.160000000000025 5.400000001490113 7.799999997019768
      vertex 44.160000000000025 5.400000001490113 11
      vertex 44.160000000000025 8.438429440557954 10.3901806473732
    endloop
  endfacet
  facet normal -1 0 0
    outer loop
      vertex 44.160000000000025 5.400000001490113 11
      vertex 44.160000000000025 8.552240933477876 10.765366867184639
      vertex 44.160000000000025 8.438429440557954 10.3901806473732
    endloop
  endfacet
  facet normal -1 0 0
    outer loop
      vertex 44.160000000000025 5.400000001490113 11
      vertex 44.160000000000025 8.677654955935608 11
      vertex 44.160000000000025 8.552240933477876 10.765366867184639
    endloop
  endfacet
  facet normal 0 0 1
    outer loop
      vertex 1.5999999999999943 5 11
      vertex 0 5 11
      vertex 0 4.500000002980229 11
    endloop
  endfacet
  facet normal 0 -1 0
    outer loop
      vertex 46.96000000000001 3.0000000029802294 9.5
      vertex 0 3.0000000029802294 9.5
      vertex 0 3.0000000029802294 0
    endloop
  endfacet
  facet normal 0 -0.991444861939091 0.13052618792631968
    outer loop
      vertex 46.96000000000001 3.051111261546609 9.888228565454483
      vertex 0 3.051111261546609 9.888228565454483
      vertex 0 3.0000000029802294 9.5
    endloop
  endfacet
  facet normal 0 -0.9238795306578887 0.3826834368395886
    outer loop
      vertex 46.96000000000001 3.2009618982672663 10.25
      vertex 0 3.2009618982672663 10.25
      vertex 0 3.051111261546609 9.888228565454483
    endloop
  endfacet
  facet normal 0 -0.7933533343928049 0.6087614366957047
    outer loop
      vertex 46.96000000000001 3.4393398344516726 10.560660168528557
      vertex 0 3.4393398344516726 10.560660168528557
      vertex 0 3.2009618982672663 10.25
    endloop
  endfacet
  facet normal 0 -0.6087614366957047 0.7933533343928049
    outer loop
      vertex 46.96000000000001 3.7500000029802294 10.799038104712963
      vertex 0 3.7500000029802294 10.799038104712963
      vertex 0 3.4393398344516726 10.560660168528557
    endloop
  endfacet
  facet normal 0 -0.3826834368395886 0.9238795306578887
    outer loop
      vertex 46.96000000000001 4.111771437525746 10.94888874143362
      vertex 0 4.111771437525746 10.94888874143362
      vertex 0 3.7500000029802294 10.799038104712963
    endloop
  endfacet
  facet normal 0 -0.13052618792631968 0.991444861939091
    outer loop
      vertex 46.96000000000001 4.500000002980229 11
      vertex 0 4.500000002980229 11
      vertex 0 4.111771437525746 10.94888874143362
    endloop
  endfacet
  facet normal 0 0 1
    outer loop
      vertex 1.5999999999999943 5 11
      vertex 0 4.500000002980229 11
      vertex 46.96000000000001 4.500000002980229 11
    endloop
  endfacet
  facet normal 0 0 1
    outer loop
      vertex 1.5999999999999943 5 11
      vertex 44.160000000000025 5.400000001490113 11
      vertex 1.5999999999999943 5.400000001490113 11
    endloop
  endfacet
  facet normal 0 -1 0
    outer loop
      vertex 46.96000000000001 3.0000000029802294 9.5
      vertex 0 3.0000000029802294 0
      vertex 46.96000000000001 3.0000000029802294 0
    endloop
  endfacet
  facet normal 1 0 0
    outer loop
      vertex 46.96000000000001 3.0000000029802294 9.5
      vertex 46.96000000000001 3.0000000029802294 0
      vertex 46.96000000000001 29.799999999999997 0
    endloop
  endfacet
  facet normal 0 -0.991444861939091 0.13052618792631968
    outer loop
      vertex 46.96000000000001 3.0000000029802294 9.5
      vertex 46.96000000000001 3.051111261546609 9.888228565454483
      vertex 0 3.0000000029802294 9.5
    endloop
  endfacet
  facet normal 0 -0.9238795306578887 0.3826834368395886
    outer loop
      vertex 46.96000000000001 3.051111261546609 9.888228565454483
      vertex 46.96000000000001 3.2009618982672663 10.25
      vertex 0 3.051111261546609 9.888228565454483
    endloop
  endfacet
  facet normal 0 -0.7933533343928049 0.6087614366957047
    outer loop
      vertex 46.96000000000001 3.2009618982672663 10.25
      vertex 46.96000000000001 3.4393398344516726 10.560660168528557
      vertex 0 3.2009618982672663 10.25
    endloop
  endfacet
  facet normal 0 -0.6087614366957047 0.7933533343928049
    outer loop
      vertex 46.96000000000001 3.4393398344516726 10.560660168528557
      vertex 46.96000000000001 3.7500000029802294 10.799038104712963
      vertex 0 3.4393398344516726 10.560660168528557
    endloop
  endfacet
  facet normal 0 -0.3826834368395886 0.9238795306578887
    outer loop
      vertex 46.96000000000001 3.7500000029802294 10.799038104712963
      vertex 46.96000000000001 4.111771437525746 10.94888874143362
      vertex 0 3.7500000029802294 10.799038104712963
    endloop
  endfacet
  facet normal 0 -0.13052618792631968 0.991444861939091
    outer loop
      vertex 46.96000000000001 4.111771437525746 10.94888874143362
      vertex 46.96000000000001 4.500000002980229 11
      vertex 0 4.111771437525746 10.94888874143362
    endloop
  endfacet
  facet normal 0 0 1
    outer loop
      vertex 1.5999999999999943 5 11
      vertex 46.96000000000001 4.500000002980229 11
      vertex 44.160000000000025 5.400000001490113 11
    endloop
  endfacet
  facet normal 0 0 1
    outer loop
      vertex 44.160000000000025 5.400000001490113 11
      vertex 46.96000000000001 4.500000002980229 11
      vertex 44.160000000000025 8.677654955935608 11
    endloop
  endfacet
  facet normal 1 0 0
    outer loop
      vertex 46.96000000000001 3.0000000029802294 9.5
      vertex 46.96000000000001 29.799999999999997 11
      vertex 46.96000000000001 3.051111261546609 9.888228565454483
    endloop
  endfacet
  facet normal 1 0 0
    outer loop
      vertex 46.96000000000001 3.051111261546609 9.888228565454483
      vertex 46.96000000000001 29.799999999999997 11
      vertex 46.96000000000001 3.2009618982672663 10.25
    endloop
  endfacet
  facet normal 1 0 0
    outer loop
      vertex 46.96000000000001 3.2009618982672663 10.25
      vertex 46.96000000000001 29.799999999999997 11
      vertex 46.96000000000001 3.4393398344516726 10.560660168528557
    endloop
  endfacet
  facet normal 1 0 0
    outer loop
      vertex 46.96000000000001 3.4393398344516726 10.560660168528557
      vertex 46.96000000000001 29.799999999999997 11
      vertex 46.96000000000001 3.7500000029802294 10.799038104712963
    endloop
  endfacet
  facet normal 1 0 0
    outer loop
      vertex 46.96000000000001 3.7500000029802294 10.799038104712963
      vertex 46.96000000000001 29.799999999999997 11
      vertex 46.96000000000001 4.111771437525746 10.94888874143362
    endloop
  endfacet
  facet normal 1 0 0
    outer loop
      vertex 46.96000000000001 4.111771437525746 10.94888874143362
      vertex 46.96000000000001 29.799999999999997 11
      vertex 46.96000000000001 4.500000002980229 11
    endloop
  endfacet
  facet normal 0 0 1
    outer loop
      vertex 46.96000000000001 4.500000002980229 11
      vertex 44.160000000000025 29.799999999999997 11
      vertex 44.160000000000025 8.677654955935608 11
    endloop
  endfacet
  facet normal 1 0 0
    outer loop
      vertex 46.96000000000001 3.0000000029802294 9.5
      vertex 46.96000000000001 29.799999999999997 0
      vertex 46.96000000000001 29.799999999999997 11
    endloop
  endfacet
  facet normal 0 0 1
    outer loop
      vertex 46.96000000000001 4.500000002980229 11
      vertex 46.96000000000001 29.799999999999997 11
      vertex 44.160000000000025 29.799999999999997 11
    endloop
  endfacet
  facet normal 0 0 1
    outer loop
      vertex 1.5999999999999943 5 8
      vertex 1.200000000000017 5.400000001490113 8
      vertex 0 5 8
    endloop
  endfacet
  facet normal 0 0 1
    outer loop
      vertex 1.5999999999999943 5 8
      vertex 1.5999999999999943 5.400000001490113 8
      vertex 1.200000000000017 5.400000001490113 8
    endloop
  endfacet
  facet normal 0 0 1
    outer loop
      vertex 1.200000000000017 5.400000001490113 8
      vertex 1.200000000000017 8.387541499205412 8
      vertex 0 5 8
    endloop
  endfacet
  facet normal 0 1 0
    outer loop
      vertex 1.5999999999999943 5 8
      vertex 0 5 8
      vertex 0 5 11
    endloop
  endfacet
  facet normal -1 0 0
    outer loop
      vertex 1.5999999999999943 5 8
      vertex 1.5999999999999943 5.400000001490113 11
      vertex 1.5999999999999943 5.400000001490113 8
    endloop
  endfacet
  facet normal 0 1 0
    outer loop
      vertex 1.5999999999999943 5 8
      vertex 0 5 11
      vertex 1.5999999999999943 5 11
    endloop
  endfacet
  facet normal -1 0 0
    outer loop
      vertex 1.5999999999999943 5 8
      vertex 1.5999999999999943 5 11
      vertex 1.5999999999999943 5.400000001490113 11
    endloop
  endfacet
  facet normal 0 0 1
    outer loop
      vertex 1.200000000000017 8.387541499205412 8
      vertex 0 29.799999999999997 8
      vertex 0 5 8
    endloop
  endfacet
  facet normal 0 0 1
    outer loop
      vertex 1.200000000000017 8.387541499205412 8
      vertex 1.200000000000017 29.799999999999997 8
      vertex 0 29.799999999999997 8
    endloop
  endfacet
  facet normal 0 0 -1
    outer loop
      vertex 0 29.799999999999997 0
      vertex 1.200000000000017 5.400000001490113 0
      vertex 0 3.0000000029802294 0
    endloop
  endfacet
  facet normal -1 0 0
    outer loop
      vertex 0 29.799999999999997 0
      vertex 0 3.0000000029802294 0
      vertex 0 5 8
    endloop
  endfacet
  facet normal 0 0 -1
    outer loop
      vertex 1.200000000000017 5.400000001490113 0
      vertex 46.96000000000001 3.0000000029802294 0
      vertex 0 3.0000000029802294 0
    endloop
  endfacet
  facet normal -1 0 0
    outer loop
      vertex 0 3.0000000029802294 0
      vertex 0 3.0000000029802294 9.5
      vertex 0 5 11
    endloop
  endfacet
  facet normal -1 0 0
    outer loop
      vertex 0 5 8
      vertex 0 3.0000000029802294 0
      vertex 0 5 11
    endloop
  endfacet
  facet normal -1 0 0
    outer loop
      vertex 0 3.0000000029802294 9.5
      vertex 0 3.051111261546609 9.888228565454483
      vertex 0 5 11
    endloop
  endfacet
  facet normal -1 0 0
    outer loop
      vertex 0 3.051111261546609 9.888228565454483
      vertex 0 3.2009618982672663 10.25
      vertex 0 5 11
    endloop
  endfacet
  facet normal -1 0 0
    outer loop
      vertex 0 3.2009618982672663 10.25
      vertex 0 3.4393398344516726 10.560660168528557
      vertex 0 5 11
    endloop
  endfacet
  facet normal -1 0 0
    outer loop
      vertex 0 3.4393398344516726 10.560660168528557
      vertex 0 3.7500000029802294 10.799038104712963
      vertex 0 5 11
    endloop
  endfacet
  facet normal -1 0 0
    outer loop
      vertex 0 3.7500000029802294 10.799038104712963
      vertex 0 4.111771437525746 10.94888874143362
      vertex 0 5 11
    endloop
  endfacet
  facet normal -1 0 0
    outer loop
      vertex 0 4.111771437525746 10.94888874143362
      vertex 0 4.500000002980229 11
      vertex 0 5 11
    endloop
  endfacet
  facet normal 0 0 -1
    outer loop
      vertex 0 29.799999999999997 0
      vertex 1.200000000000017 29.799999999999997 0
      vertex 1.200000000000017 5.400000001490113 0
    endloop
  endfacet
  facet normal -1 0 0
    outer loop
      vertex 0 29.799999999999997 0
      vertex 0 5 8
      vertex 0 29.799999999999997 8
    endloop
  endfacet
  facet normal 0 1 0
    outer loop
      vertex 0 29.799999999999997 0
      vertex 1.200000000000017 29.799999999999997 8
      vertex 1.200000000000017 29.799999999999997 0
    endloop
  endfacet
  facet normal 0 1 0
    outer loop
      vertex 0 29.799999999999997 0
      vertex 0 29.799999999999997 8
      vertex 1.200000000000017 29.799999999999997 8
    endloop
  endfacet
  facet normal 0 0 -1
    outer loop
      vertex 1.200000000000017 5.400000001490113 0
      vertex 44.160000000000025 5.400000001490113 0
      vertex 46.96000000000001 3.0000000029802294 0
    endloop
  endfacet
  facet normal 0 0 -1
    outer loop
      vertex 44.160000000000025 5.400000001490113 0
      vertex 46.96000000000001 29.799999999999997 0
      vertex 46.96000000000001 3.0000000029802294 0
    endloop
  endfacet
  facet normal 0 0 -1
    outer loop
      vertex 44.160000000000025 29.799999999999997 0
      vertex 46.96000000000001 29.799999999999997 0
      vertex 44.160000000000025 5.400000001490113 0
    endloop
  endfacet
  facet normal 0 1 0
    outer loop
      vertex 44.160000000000025 29.799999999999997 0
      vertex 46.96000000000001 29.799999999999997 11
      vertex 46.96000000000001 29.799999999999997 0
    endloop
  endfacet
  facet normal 0 1 0
    outer loop
      vertex 44.160000000000025 29.799999999999997 0
      vertex 44.160000000000025 29.799999999999997 11
      vertex 46.96000000000001 29.799999999999997 11
    endloop
  endfacet
endsolid OpenSCAD_Model
