solid OpenSCAD_Model
  facet normal 0 1 0
    outer loop
      vertex 42.859999999999985 113.55162985617474 9.000000000000014
      vertex 43.859999999999985 113.55162985617474 10.000000000000014
      vertex 46.859999999999985 113.55162985617474 9.000000000000014
    endloop
  endfacet
  facet normal 0 1 0
    outer loop
      vertex 43.859999999999985 113.55162985617474 10.000000000000014
      vertex 45.859999999999985 113.55162985617474 10.000000000000014
      vertex 46.859999999999985 113.55162985617474 9.000000000000014
    endloop
  endfacet
  facet normal -1 0 0
    outer loop
      vertex 42.859999999999985 113.55162985617474 9.000000000000014
      vertex 42.859999999999985 113.55162985617474 3.0000000036930956
      vertex 42.859999999999985 109.55162985617474 3.000000003623974
    endloop
  endfacet
  facet normal -1 0 0
    outer loop
      vertex 42.859999999999985 113.55162985617474 9.000000000000014
      vertex 42.859999999999985 109.55162985617474 3.000000003623974
      vertex 42.859999999999985 109.55162985617474 9.000000000000014
    endloop
  endfacet
  facet normal -0.7071067811865475 0 0.7071067811865475
    outer loop
      vertex 42.859999999999985 113.55162985617474 9.000000000000014
      vertex 42.859999999999985 109.55162985617474 9.000000000000014
      vertex 43.859999999999985 113.55162985617474 10.000000000000014
    endloop
  endfacet
  facet normal 0 1 0
    outer loop
      vertex 42.859999999999985 113.55162985617474 9.000000000000014
      vertex 46.859999999999985 113.55162985617474 9.000000000000014
      vertex 42.859999999999985 113.55162985617474 3.0000000036930956
    endloop
  endfacet
  facet normal 0 1 0
    outer loop
      vertex 46.859999999999985 113.55162985617474 9.000000000000014
      vertex 46.859999999999985 113.55162985617474 3.000000003693117
      vertex 42.859999999999985 113.55162985617474 3.0000000036930956
    endloop
  endfacet
  facet normal 1 0 0
    outer loop
      vertex 46.859999999999985 113.55162985617474 9.000000000000014
      vertex 46.859999999999985 109.55162985617474 9.000000000000014
      vertex 46.859999999999985 113.55162985617474 3.000000003693117
    endloop
  endfacet
  facet normal 1 0 0
    outer loop
      vertex 46.859999999999985 113.55162985617474 3.000000003693117
      vertex 46.859999999999985 109.55162985617474 9.000000000000014
      vertex 46.859999999999985 109.55162985617474 3.0000000036239953
    endloop
  endfacet
  facet normal 0 -1 0
    outer loop
      vertex 42.859999999999985 109.55162985617474 3.000000003623974
      vertex 46.859999999999985 109.55162985617474 3.0000000036239953
      vertex 42.859999999999985 109.55162985617474 9.000000000000014
    endloop
  endfacet
  facet normal -0.707106781186545 -1.2560739669470245e-15 0.70710678118655
    outer loop
      vertex 43.859999999999985 113.55162985617474 10.000000000000014
      vertex 42.859999999999985 109.55162985617474 9.000000000000014
      vertex 43.859999999999985 109.55162985617474 10.000000000000007
    endloop
  endfacet
  facet normal 0 -1 0
    outer loop
      vertex 42.859999999999985 109.55162985617474 9.000000000000014
      vertex 45.859999999999985 109.55162985617474 10.000000000000007
      vertex 43.859999999999985 109.55162985617474 10.000000000000007
    endloop
  endfacet
  facet normal 0 -1.7763568394002505e-15 1
    outer loop
      vertex 43.859999999999985 113.55162985617474 10.000000000000014
      vertex 43.859999999999985 109.55162985617474 10.000000000000007
      vertex 45.859999999999985 109.55162985617474 10.000000000000007
    endloop
  endfacet
  facet normal 0 -1.7763568394002505e-15 1
    outer loop
      vertex 43.859999999999985 113.55162985617474 10.000000000000014
      vertex 45.859999999999985 109.55162985617474 10.000000000000007
      vertex 45.859999999999985 113.55162985617474 10.000000000000014
    endloop
  endfacet
  facet normal 0.7071067811865475 -1.25607396694702e-15 0.7071067811865475
    outer loop
      vertex 45.859999999999985 113.55162985617474 10.000000000000014
      vertex 45.859999999999985 109.55162985617474 10.000000000000007
      vertex 46.859999999999985 113.55162985617474 9.000000000000014
    endloop
  endfacet
  facet normal 0.707106781186545 0 0.70710678118655
    outer loop
      vertex 46.859999999999985 113.55162985617474 9.000000000000014
      vertex 45.859999999999985 109.55162985617474 10.000000000000007
      vertex 46.859999999999985 109.55162985617474 9.000000000000014
    endloop
  endfacet
  facet normal 0 -1 0
    outer loop
      vertex 46.859999999999985 109.55162985617474 3.0000000036239953
      vertex 45.859999999999985 109.55162985617474 10.000000000000007
      vertex 42.859999999999985 109.55162985617474 9.000000000000014
    endloop
  endfacet
  facet normal 0 -1 0
    outer loop
      vertex 46.859999999999985 109.55162985617474 3.0000000036239953
      vertex 46.859999999999985 109.55162985617474 9.000000000000014
      vertex 45.859999999999985 109.55162985617474 10.000000000000007
    endloop
  endfacet
  facet normal 0 0.7222586421846308 -0.6916230575896191
    outer loop
      vertex 48.82063975892342 120.60929018135482 0.16063975892344473
      vertex 0 120.60929018135482 0.16063975892344473
      vertex 0 122.1650734879303 1.785336804821334
    endloop
  endfacet
  facet normal 0 0.39266839772983875 -0.919680123425684
    outer loop
      vertex 48.660000004151385 120.23305111971922 4.1513956716698885e-9
      vertex 0 120.23305111971922 4.1513956716698885e-9
      vertex 0 120.60929018135482 0.16063975892344473
    endloop
  endfacet
  facet normal 3.097031744869178e-16 -1.7280115207779698e-11 1
    outer loop
      vertex 42.859999999999985 109.55162985617474 3.000000003623974
      vertex 0 119.65916934614373 3.0000000037986467
      vertex 0 3.0951639743194903 3.0000000017844073
    endloop
  endfacet
  facet normal 0 1.7280174671810368e-11 -1
    outer loop
      vertex 48.66000000210275 1.6817565489568551 2.102808593917871e-9
      vertex 0 1.6817565489568551 2.102808593917871e-9
      vertex 0 120.23305111971922 4.1513956716698885e-9
    endloop
  endfacet
  facet normal 0 -0.39266839772988893 0.9196801234256624
    outer loop
      vertex 49.66 3.0951639743194903 3.0000000017844073
      vertex 0 3.0951639743194903 3.0000000017844073
      vertex 0 2.7189249126839456 2.8393602470123582
    endloop
  endfacet
  facet normal 0 -0.7222586421846275 0.6916230575896224
    outer loop
      vertex 49.66 2.7189249126839456 2.8393602470123582
      vertex 0 2.7189249126839456 2.8393602470123582
      vertex 0 1.1631416061084394 1.2146632011144547
    endloop
  endfacet
  facet normal 0 -0.919680122678866 -0.39266839947898263
    outer loop
      vertex 49.66 1.1631416061084394 1.2146632011144547
      vertex 0 1.1631416061084394 1.2146632011144547
      vertex 0 1.6817565489568551 2.102808593917871e-9
    endloop
  endfacet
  facet normal 0 0.7222586421846329 -0.6916230575896167
    outer loop
      vertex 49.66 122.1650734879303 1.785336804821334
      vertex 49.66 121.41304781393453 1.0000000000000284
      vertex 0 122.1650734879303 1.785336804821334
    endloop
  endfacet
  facet normal 0 -1.7282102485054726e-11 1
    outer loop
      vertex 49.66 119.65916934614373 3.0000000037986467
      vertex 0 119.65916934614373 3.0000000037986467
      vertex 42.859999999999985 113.55162985617474 3.0000000036930956
    endloop
  endfacet
  facet normal 2.4269865245250537e-16 -1.7280399333685637e-11 1
    outer loop
      vertex 42.859999999999985 113.55162985617474 3.0000000036930956
      vertex 0 119.65916934614373 3.0000000037986467
      vertex 42.859999999999985 109.55162985617474 3.000000003623974
    endloop
  endfacet
  facet normal 0 0.3926683977298387 -0.9196801234256838
    outer loop
      vertex 48.82063975892342 120.60929018135482 0.16063975892344473
      vertex 48.660000004151385 120.23305111971922 4.1513956716698885e-9
      vertex 0 120.60929018135482 0.16063975892344473
    endloop
  endfacet
  facet normal -1.301155635752581e-16 0.7222586421846289 -0.691623057589621
    outer loop
      vertex 49.66 121.41304781393453 1.0000000000000284
      vertex 48.82063975892342 120.60929018135482 0.16063975892344473
      vertex 0 122.1650734879303 1.785336804821334
    endloop
  endfacet
  facet normal -5.329070518201281e-15 -1.7276169215268542e-11 1
    outer loop
      vertex 49.66 119.65916934614373 3.0000000037986467
      vertex 42.859999999999985 113.55162985617474 3.0000000036930956
      vertex 46.859999999999985 113.55162985617474 3.000000003693117
    endloop
  endfacet
  facet normal 1 0 0
    outer loop
      vertex 49.66 122.1650734879303 1.785336804821334
      vertex 49.66 1.1631416061084394 1.2146632011144547
      vertex 49.66 121.41304781393453 1.0000000000000284
    endloop
  endfacet
  facet normal 1 0 0
    outer loop
      vertex 49.66 122.1650734879303 1.785336804821334
      vertex 49.66 121.64645854508188 3.0000000038329873
      vertex 49.66 2.7189249126839456 2.8393602470123582
    endloop
  endfacet
  facet normal 1 0 0
    outer loop
      vertex 49.66 121.64645854508188 3.0000000038329873
      vertex 49.66 119.65916934614373 3.0000000037986467
      vertex 49.66 2.7189249126839456 2.8393602470123582
    endloop
  endfacet
  facet normal 0 1.7280174671810365e-11 -1
    outer loop
      vertex 48.660000004151385 120.23305111971922 4.1513956716698885e-9
      vertex 48.66000000210275 1.6817565489568551 2.102808593917871e-9
      vertex 0 120.23305111971922 4.1513956716698885e-9
    endloop
  endfacet
  facet normal 3.278181299300825e-15 -1.7280115207779698e-11 1
    outer loop
      vertex 49.66 119.65916934614373 3.0000000037986467
      vertex 46.859999999999985 113.55162985617474 3.000000003693117
      vertex 49.66 3.0951639743194903 3.0000000017844073
    endloop
  endfacet
  facet normal -5.329070518200751e-15 -1.7280330918504972e-11 1
    outer loop
      vertex 42.859999999999985 109.55162985617474 3.000000003623974
      vertex 49.66 3.0951639743194903 3.0000000017844073
      vertex 46.859999999999985 109.55162985617474 3.0000000036239953
    endloop
  endfacet
  facet normal -7.93022707046566e-15 -1.7280399333685637e-11 1
    outer loop
      vertex 46.859999999999985 113.55162985617474 3.000000003693117
      vertex 46.859999999999985 109.55162985617474 3.0000000036239953
      vertex 49.66 3.0951639743194903 3.0000000017844073
    endloop
  endfacet
  facet normal 2.2760997663209264e-27 -1.727999051945806e-11 1
    outer loop
      vertex 42.859999999999985 109.55162985617474 3.000000003623974
      vertex 0 3.0951639743194903 3.0000000017844073
      vertex 49.66 3.0951639743194903 3.0000000017844073
    endloop
  endfacet
  facet normal -7.818520945981454e-20 -0.39266839772988893 0.9196801234256624
    outer loop
      vertex 49.66 3.0951639743194903 3.0000000017844073
      vertex 0 2.7189249126839456 2.8393602470123582
      vertex 49.66 2.7189249126839456 2.8393602470123582
    endloop
  endfacet
  facet normal 0 -0.9196801226788716 -0.39266839947896964
    outer loop
      vertex 48.66000000210275 1.6817565489568551 2.102808593917871e-9
      vertex 49.66 1.254794620596897 1.0000000000000782
      vertex 0 1.6817565489568551 2.102808593917871e-9
    endloop
  endfacet
  facet normal -4.712070980147801e-19 -0.7222586421846275 0.6916230575896224
    outer loop
      vertex 49.66 2.7189249126839456 2.8393602470123582
      vertex 0 1.1631416061084394 1.2146632011144547
      vertex 49.66 1.1631416061084394 1.2146632011144547
    endloop
  endfacet
  facet normal 1.7447633281834837e-15 -0.9196801226788403 -0.392668399479043
    outer loop
      vertex 49.66 1.1631416061084394 1.2146632011144547
      vertex 0 1.6817565489568551 2.102808593917871e-9
      vertex 49.66 1.254794620596897 1.0000000000000782
    endloop
  endfacet
  facet normal 1 0 0
    outer loop
      vertex 49.66 122.1650734879303 1.785336804821334
      vertex 49.66 2.7189249126839456 2.8393602470123582
      vertex 49.66 1.1631416061084394 1.2146632011144547
    endloop
  endfacet
  facet normal 1 0 0
    outer loop
      vertex 49.66 121.41304781393453 1.0000000000000284
      vertex 49.66 1.1631416061084394 1.2146632011144547
      vertex 49.66 1.254794620596897 1.0000000000000782
    endloop
  endfacet
  facet normal 1 0 0
    outer loop
      vertex 49.66 119.65916934614373 3.0000000037986467
      vertex 49.66 3.0951639743194903 3.0000000017844073
      vertex 49.66 2.7189249126839456 2.8393602470123582
    endloop
  endfacet
  facet normal 0 0.9997653377059339 0.021662629612767326
    outer loop
      vertex 49.66 140.43998113482036 20.869735218449797
      vertex 0 140.43998113482036 20.869735218449797
      vertex 0 140.4220352247991 21.697967945204226
    endloop
  endfacet
  facet normal 0 0.6916230575896232 0.7222586421846267
    outer loop
      vertex 49.66 140.4220352247991 21.697967945204226
      vertex 0 140.4220352247991 21.697967945204226
      vertex 0 139.35422846086175 22.72048223005295
    endloop
  endfacet
  facet normal 0 -0.021662629612742165 0.9997653377059343
    outer loop
      vertex 49.66 139.35422846086175 22.72048223005295
      vertex 0 139.35422846086175 22.72048223005295
      vertex 0 138.52599573410734 22.702536320031705
    endloop
  endfacet
  facet normal 0 -0.7222586421846271 0.6916230575896228
    outer loop
      vertex 49.66 138.52599573410734 22.702536320031705
      vertex 0 138.52599573410734 22.702536320031705
      vertex 0 119.65916934614373 3.0000000037986467
    endloop
  endfacet
  facet normal 0 0.7222586421846271 -0.6916230575896232
    outer loop
      vertex 49.66 122.1650734879303 1.785336804821334
      vertex 0 122.1650734879303 1.785336804821334
      vertex 0 140.43998113482036 20.869735218449797
    endloop
  endfacet
  facet normal 1.7893447017835782e-20 0.9997653377059339 0.021662629612767326
    outer loop
      vertex 49.66 140.43998113482036 20.869735218449797
      vertex 0 140.4220352247991 21.697967945204226
      vertex 49.66 140.4220352247991 21.697967945204226
    endloop
  endfacet
  facet normal 8.523634799597328e-19 0.6916230575896232 0.7222586421846267
    outer loop
      vertex 49.66 140.4220352247991 21.697967945204226
      vertex 0 139.35422846086175 22.72048223005295
      vertex 49.66 139.35422846086175 22.72048223005295
    endloop
  endfacet
  facet normal -1.1277021151723047e-20 -0.021662629612742165 0.9997653377059343
    outer loop
      vertex 49.66 139.35422846086175 22.72048223005295
      vertex 0 138.52599573410734 22.702536320031705
      vertex 49.66 138.52599573410734 22.702536320031705
    endloop
  endfacet
  facet normal 0 0.7222586421846271 -0.6916230575896232
    outer loop
      vertex 49.66 140.43998113482036 20.869735218449797
      vertex 49.66 122.1650734879303 1.785336804821334
      vertex 0 140.43998113482036 20.869735218449797
    endloop
  endfacet
  facet normal 9.638283620526684e-18 -0.7222586421846271 0.6916230575896228
    outer loop
      vertex 49.66 138.52599573410734 22.702536320031705
      vertex 0 119.65916934614373 3.0000000037986467
      vertex 49.66 119.65916934614373 3.0000000037986467
    endloop
  endfacet
  facet normal 1 0 0
    outer loop
      vertex 49.66 140.43998113482036 20.869735218449797
      vertex 49.66 140.4220352247991 21.697967945204226
      vertex 49.66 119.65916934614373 3.0000000037986467
    endloop
  endfacet
  facet normal 1 0 0
    outer loop
      vertex 49.66 140.4220352247991 21.697967945204226
      vertex 49.66 139.35422846086175 22.72048223005295
      vertex 49.66 119.65916934614373 3.0000000037986467
    endloop
  endfacet
  facet normal 1 0 0
    outer loop
      vertex 49.66 139.35422846086175 22.72048223005295
      vertex 49.66 138.52599573410734 22.702536320031705
      vertex 49.66 119.65916934614373 3.0000000037986467
    endloop
  endfacet
  facet normal 1 0 0
    outer loop
      vertex 49.66 140.43998113482036 20.869735218449797
      vertex 49.66 121.64645854508188 3.0000000038329873
      vertex 49.66 122.1650734879303 1.785336804821334
    endloop
  endfacet
  facet normal 1 0 0
    outer loop
      vertex 49.66 140.43998113482036 20.869735218449797
      vertex 49.66 119.65916934614373 3.0000000037986467
      vertex 49.66 121.64645854508188 3.0000000038329873
    endloop
  endfacet
  facet normal 0.7071067811865791 -2.966440939372331e-16 -0.7071067811865159
    outer loop
      vertex 48.82063975892342 120.60929018135482 0.16063975892344473
      vertex 48.66000000210275 1.6817565489568551 2.102808593917871e-9
      vertex 48.660000004151385 120.23305111971922 4.1513956716698885e-9
    endloop
  endfacet
  facet normal 0.7071067811865507 -2.926979224467161e-16 -0.7071067811865445
    outer loop
      vertex 49.66 121.41304781393453 1.0000000000000284
      vertex 49.66 1.254794620596897 1.0000000000000782
      vertex 48.82063975892342 120.60929018135482 0.16063975892344473
    endloop
  endfacet
  facet normal 0.707106781186555 -2.3139023035197485e-16 -0.70710678118654
    outer loop
      vertex 48.82063975892342 120.60929018135482 0.16063975892344473
      vertex 49.66 1.254794620596897 1.0000000000000782
      vertex 48.66000000210275 1.6817565489568551 2.102808593917871e-9
    endloop
  endfacet
  facet normal -1 0 0
    outer loop
      vertex 0 140.4220352247991 21.697967945204226
      vertex 0 140.43998113482036 20.869735218449797
      vertex 0 139.35422846086175 22.72048223005295
    endloop
  endfacet
  facet normal -1 0 0
    outer loop
      vertex 0 139.35422846086175 22.72048223005295
      vertex 0 140.43998113482036 20.869735218449797
      vertex 0 119.65916934614373 3.0000000037986467
    endloop
  endfacet
  facet normal -1 0 0
    outer loop
      vertex 0 139.35422846086175 22.72048223005295
      vertex 0 119.65916934614373 3.0000000037986467
      vertex 0 138.52599573410734 22.702536320031705
    endloop
  endfacet
  facet normal -1 0 0
    outer loop
      vertex 0 140.43998113482036 20.869735218449797
      vertex 0 122.1650734879303 1.785336804821334
      vertex 0 119.65916934614373 3.0000000037986467
    endloop
  endfacet
  facet normal -1 0 0
    outer loop
      vertex 0 122.1650734879303 1.785336804821334
      vertex 0 120.60929018135482 0.16063975892344473
      vertex 0 119.65916934614373 3.0000000037986467
    endloop
  endfacet
  facet normal -1 0 0
    outer loop
      vertex 0 120.60929018135482 0.16063975892344473
      vertex 0 120.23305111971922 4.1513956716698885e-9
      vertex 0 119.65916934614373 3.0000000037986467
    endloop
  endfacet
  facet normal -1 0 0
    outer loop
      vertex 0 119.65916934614373 3.0000000037986467
      vertex 0 120.23305111971922 4.1513956716698885e-9
      vertex 0 3.0951639743194903 3.0000000017844073
    endloop
  endfacet
  facet normal -1 0 0
    outer loop
      vertex 0 120.23305111971922 4.1513956716698885e-9
      vertex 0 2.7189249126839456 2.8393602470123582
      vertex 0 3.0951639743194903 3.0000000017844073
    endloop
  endfacet
  facet normal -1 0 0
    outer loop
      vertex 0 120.23305111971922 4.1513956716698885e-9
      vertex 0 1.1631416061084394 1.2146632011144547
      vertex 0 2.7189249126839456 2.8393602470123582
    endloop
  endfacet
  facet normal -1 0 0
    outer loop
      vertex 0 120.23305111971922 4.1513956716698885e-9
      vertex 0 1.6817565489568551 2.102808593917871e-9
      vertex 0 1.1631416061084394 1.2146632011144547
    endloop
  endfacet
endsolid OpenSCAD_Model
